# xmcd CD database file
#
# Track frame offsets:
#	150
#	21762
#	40642
#	55295
#	70357
#	92842
#	111050
#	133292
#	147292
#	164777
#
# Disc length: 2484 seconds
#
# Revision: 0
# Processed by: cddbd v1.5.1PL0 Copyright (c) Steve Scherf et al.
# Submitted via: CDex 1.51
#
DISCID=9209b20a
DTITLE=Pokka - Pokka Coffe Original 29th Anniversary Spesial CD disk2
DYEAR=2000
DGENRE=Pop
TTITLE0=BOSTON/MORE  THAN A FEELING
TTITLE1=SANTANA/SHE'S NOT THERE
TTITLE2=DAN FORGELBERG/LONGER
TTITLE3=JOURNEY/OPEN ARMS
TTITLE4=TOTO/AFRICA
TTITLE5=CYNDI LAUPER/TIME AFTER TIME
TTITLE6=REO SPEEDWAGON/CAN'T FIGHT THIS FEELING
TTITLE7=BANGLES/MANIC MONDAY
TTITLE8=CHEAP TRICK/CAN'T STOP FALLIN' INTO LOVE
TTITLE9=FIREHOUSE/LOVE OF A LIFETIME
EXTD=YEAR: 2000
EXTT0=
EXTT1=
EXTT2=
EXTT3=
EXTT4=
EXTT5=
EXTT6=
EXTT7=
EXTT8=
EXTT9=
PLAYORDER=
